name processed_emg_signals						
nRows=51						
nColumns=7						
 						
endheader						
time	LGLTMED	LRF	LADDLONG	LST	LTA	LGM
1.16	0.142222723	0.114875359	0.08002082	0.049223921	0.108626371	0.141422467
1.161	0.142375027	0.115021253	0.080152562	0.047533006	0.109708664	0.141940669
1.162	0.142507725	0.115161124	0.080271843	0.045911005	0.110848402	0.14247485
1.163	0.142621042	0.115296063	0.080379016	0.044357376	0.112044221	0.143024609
1.164	0.142715209	0.115427173	0.080474447	0.042871516	0.113294669	0.143589492
1.165	0.142790464	0.115555567	0.080558517	0.041452767	0.11459821	0.144168996
1.166	0.14284705	0.115682365	0.080631614	0.040100414	0.115953222	0.144762568
1.167	0.142885215	0.115808692	0.080694142	0.038813693	0.117358004	0.145369606
1.168	0.142905215	0.115935677	0.080746511	0.037591788	0.118810777	0.14598946
1.169	0.142907309	0.116064446	0.080789139	0.036433834	0.120309687	0.146621434
1.17	0.142891761	0.116196126	0.080822455	0.035338922	0.121852809	0.147264784
1.171	0.142858842	0.116331838	0.08084689	0.034306097	0.123438146	0.147918725
1.172	0.142808827	0.116472696	0.080862884	0.033334364	0.125063639	0.148582424
1.173	0.142741992	0.116619805	0.080870878	0.032422687	0.126727166	0.149255009
1.174	0.142658623	0.116774258	0.080871317	0.031569993	0.128426545	0.149935568
1.175	0.142559005	0.116937134	0.080864648	0.030775174	0.130159542	0.150623148
1.176	0.14244343	0.117109496	0.08085132	0.030037089	0.131923868	0.151316759
1.177	0.142312191	0.117292388	0.080831779	0.029354564	0.13371719	0.152015378
1.178	0.142165586	0.117486833	0.080806472	0.028726399	0.13553713	0.152717945
1.179	0.142003917	0.117693831	0.080775841	0.028151364	0.137381269	0.153423371
1.18	0.141827487	0.117914356	0.080740328	0.027628206	0.139247155	0.154130536
1.181	0.141636603	0.118149357	0.080700367	0.02715565	0.141132301	0.154838295
1.182	0.141431573	0.118399751	0.080656388	0.026732397	0.143034197	0.155545474
1.183	0.14121271	0.118666425	0.080608816	0.026357133	0.144950306	0.156250881
1.184	0.140980326	0.118950232	0.080558066	0.026028525	0.146878071	0.156953298
1.185	0.140734737	0.11925199	0.080504546	0.025745225	0.148814925	0.157651493
1.186	0.14047626	0.11957248	0.080448656	0.025505873	0.150758285	0.158344218
1.187	0.140205214	0.119912443	0.080390785	0.025309097	0.152705563	0.159030209
1.188	0.139921917	0.120272583	0.080331311	0.025153516	0.154654171	0.159708196
1.189	0.139626689	0.120653558	0.080270602	0.025037743	0.156601519	0.160376897
1.19	0.139319852	0.121055985	0.080209013	0.024960384	0.158545026	0.161035028
1.191	0.139001726	0.121480436	0.080146886	0.02492004	0.16048212	0.161681301
1.192	0.138672632	0.121927435	0.080084551	0.024915313	0.162410242	0.162314429
1.193	0.138332889	0.12239746	0.080022325	0.0249448	0.164326854	0.162933128
1.194	0.137982819	0.122890942	0.079960507	0.025007103	0.166229439	0.16353612
1.195	0.137622738	0.123408259	0.079899386	0.025100826	0.168115506	0.164122136
1.196	0.137252964	0.123949742	0.079839233	0.025224575	0.169982594	0.164689919
1.197	0.136873812	0.124515668	0.079780305	0.025376963	0.171828276	0.165238224
1.198	0.136485595	0.125106265	0.079722842	0.025556611	0.173650164	0.165765828
1.199	0.136088624	0.125721704	0.079667068	0.025762149	0.175445909	0.166271522
1.2	0.135683208	0.126362106	0.079613193	0.025992213	0.177213209	0.166754126
1.201	0.135269651	0.127027539	0.079561409	0.026245456	0.178949808	0.16721248
1.202	0.134848257	0.127718015	0.079511891	0.026520539	0.180653503	0.167645455
1.203	0.134419322	0.128433491	0.079464798	0.026816138	0.182322145	0.168051954
1.204	0.133983143	0.129173873	0.079420274	0.027130946	0.183953642	0.168430911
1.205	0.133540012	0.129939009	0.079378443	0.02746367	0.185545964	0.168781295
1.206	0.133090214	0.130728695	0.079339416	0.027813034	0.187097144	0.169102118
1.207	0.132634034	0.131542671	0.079303284	0.028177782	0.188605279	0.169392428
1.208	0.13217175	0.132380625	0.079270125	0.028556675	0.190068538	0.169651319
1.209	0.131703636	0.13324219	0.079239999	0.028948497	0.191485159	0.169877929
1.21	0.131229962	0.134126946	0.079212949	0.029352051	0.192853454	0.170071442
